<svg width="40" height="40" viewBox="0 0 40 40" fill="none" xmlns="http://www.w3.org/2000/svg">
<g opacity="0.7" clip-path="url(#clip0_603_660)">
<path d="M18.3838 12.6062V8.56535L15.4107 10.7947L13.4716 8.20866L18.3484 4.55193C17.2171 4.2805 16.0545 4.14288 14.8715 4.14288C6.67135 4.1428 0 10.8141 0 19.0142C0 24.3565 2.0804 29.3789 5.85786 33.1564C9.63531 36.9338 14.6578 39.0142 20 39.0142V12.6062H18.3838Z" fill="#D946EF"/>
<path d="M25.1286 4.14282C23.9456 4.14282 22.783 4.28044 21.6517 4.55187L26.5285 8.2086L24.5893 10.7946L21.6162 8.56537V12.6062H20V39.0143C25.3422 39.0143 30.3646 36.9339 34.1421 33.1565C37.9197 29.379 40 24.3565 40 19.0143C40 10.8141 33.3286 4.14282 25.1286 4.14282Z" fill="#D946EF"/>
<path d="M15.4108 10.7947L18.3839 8.56535V12.6062H21.6162V8.56535L24.5893 10.7947L26.5285 8.20859L21.6518 4.55186L21.6162 4.52527V0.985718H18.3839V4.52527L18.3484 4.55186L13.4717 8.20859L15.4108 10.7947Z" fill="#E879F9"/>
</g>
<defs>
<clipPath id="clip0_603_660">
<rect width="40" height="40" fill="white"/>
</clipPath>
</defs>
</svg>
