<svg width="40" height="40" viewBox="0 0 40 40" fill="none" xmlns="http://www.w3.org/2000/svg">
<g clip-path="url(#clip0_603_648)">
<path d="M25.2343 4.43436C23.8689 4.43436 22.5307 4.61828 21.2371 4.98199V2.03692C21.2371 1.35368 20.6832 0.799805 20 0.799805V0.799805C19.3168 0.799805 18.7629 1.35368 18.7629 2.03692V4.98191C17.4693 4.6182 16.1311 4.43428 14.7657 4.43428C6.62383 4.43436 0 11.0582 0 19.2001C0 24.5422 2.08041 29.5647 5.8579 33.3422C9.63538 37.1198 14.6578 39.2001 20 39.2001C25.3422 39.2001 30.3646 37.1197 34.1422 33.3422C37.9196 29.5648 40 24.5423 40 19.2001C40 11.0582 33.3762 4.43436 25.2343 4.43436ZM20 36.7259C10.3362 36.7259 2.47423 28.8639 2.47423 19.2001C2.47423 12.4226 7.98812 6.90867 14.7657 6.90867C15.6365 6.90867 16.4937 6.99915 17.3309 7.17696L14.5742 9.24405C14.0275 9.65393 13.9167 10.4293 14.3265 10.976V10.976C14.7364 11.5226 15.5118 11.6335 16.0585 11.2236L18.7629 9.19576V12.9074C18.7629 13.5907 19.3168 14.1445 20 14.1445V14.1445C20.6832 14.1445 21.2371 13.5907 21.2371 12.9074V9.19576L23.9415 11.2236C24.4882 11.6335 25.2636 11.5226 25.6735 10.976V10.976C26.0833 10.4293 25.9725 9.65392 25.4259 9.24404L22.6691 7.17688C23.5063 6.99906 24.3634 6.90859 25.2343 6.90859C32.0119 6.90859 37.5258 12.4225 37.5258 19.2001C37.5258 28.8638 29.6638 36.7259 20 36.7259Z" fill="#F472B6"/>
</g>
<defs>
<clipPath id="clip0_603_648">
<rect width="40" height="40" fill="white"/>
</clipPath>
</defs>
</svg>
